# xmcd
#
# Track frame offsets:
#	150
#	16729
#	30923
#	45002
#	58419
#	68726
#	86610
#	100383
#	117908
#	134579
#
# Disc length: 1997 seconds
#
# Revision: 2
# Processed by: cddbd v1.5.2PL0 Copyright (c) Steve Scherf et al.
# Submitted via: EasyCDDAExtractor 16.0.6.1
#
DISCID=7a07cb0a
DTITLE=Poco - C-124 Cowboys and Englishman
DYEAR=1982
DGENRE=Country
TTITLE0=Sea of heartbreak
TTITLE1=No relief in sight
TTITLE2=There goes my heart
TTITLE3=Ashes
TTITLE4=Freudin'
TTITLE5=Cajun moon
TTITLE6=Ribbon of darkness
TTITLE7=If you could read my mind
TTITLE8=While you're on your way
TTITLE9=The price of love
EXTD=
EXTT0=
EXTT1=
EXTT2=
EXTT3=
EXTT4=
EXTT5=
EXTT6=
EXTT7=
EXTT8=
EXTT9=
PLAYORDER=
